<?xml version="1.0" standalone="no"?>
<!DOCTYPE svg PUBLIC "-//W3C//DTD SVG 20010904//EN"
 "http://www.w3.org/TR/2001/REC-SVG-20010904/DTD/svg10.dtd">
<svg version="1.0" xmlns="http://www.w3.org/2000/svg"
 width="626.000000pt" height="626.000000pt" viewBox="0 0 626.000000 626.000000"
 preserveAspectRatio="xMidYMid meet">
<metadata>
Created by potrace 1.11, written by Peter Selinger 2001-2013
</metadata>
<g transform="translate(0.000000,626.000000) scale(0.100000,-0.100000)"
fill="#000000" stroke="none">
<path d="M0 3130 l0 -3130 3130 0 3130 0 0 3130 0 3130 -3130 0 -3130 0 0
-3130z m3944 1249 c220 -116 406 -216 413 -222 7 -8 14 -71 19 -169 6 -142 5
-158 -9 -158 -9 0 -141 20 -294 45 -153 25 -283 44 -290 43 -6 -2 101 -68 239
-148 138 -80 260 -152 270 -160 18 -14 7 -32 -207 -337 -124 -178 -234 -327
-243 -332 -10 -5 -762 -276 -1672 -601 -910 -326 -1672 -598 -1693 -606 -28
-10 -36 -10 -30 -1 4 7 241 282 527 612 807 931 892 1029 898 1040 4 6 -67
276 -156 600 l-162 590 101 6 c55 3 502 6 994 7 l893 2 402 -211z m1186 -439
c255 -66 466 -122 468 -124 5 -6 123 -779 120 -788 -2 -4 -60 38 -130 95
l-128 103 -667 -112 c-368 -62 -670 -111 -672 -109 -2 2 99 162 224 355 l228
350 -8 189 -7 190 54 -14 c29 -8 262 -68 518 -135z m-611 -1406 c39 -11 67
-29 101 -64 58 -57 80 -119 80 -226 0 -72 0 -72 29 -79 16 -3 37 -15 47 -27
18 -19 19 -42 19 -314 0 -292 0 -294 -23 -316 -23 -23 -23 -23 -337 -23 -314
0 -314 0 -337 23 -23 22 -23 24 -23 316 0 274 1 295 19 315 10 11 34 23 52 27
l34 6 0 72 c0 107 22 169 80 227 73 73 157 94 259 63z"/>
<path d="M4355 2437 c-62 -35 -85 -85 -85 -184 l0 -83 170 0 170 0 0 83 c0 66
-5 89 -23 122 -45 80 -151 108 -232 62z"/>
</g>
</svg>
